<?xml version="1.0" encoding="utf-8" ?><svg xmlns="http://www.w3.org/2000/svg" xmlns:xlink="http://www.w3.org/1999/xlink" width="512" height="512" viewBox="0 0 512 512"><path fill="#556180" d="M241.877 0L269.604 0C271.836 0.70487 276.201 0.834685 278.634 1.00468C281.838 1.21902 285.036 1.52054 288.224 1.90892C299.712 3.39778 311.09 5.64362 322.283 8.63177C389.105 26.5987 445.845 70.7781 479.645 131.157C493.975 156.817 503.773 184.757 508.606 213.747C509.575 219.485 510.33 225.257 510.871 231.05C511.166 234.175 511.396 239.848 512 242.561L512 269.47C511.024 273.471 510.903 281.182 510.372 285.76C509.15 296.429 507.256 307.01 504.699 317.439C493.473 362.617 470.163 403.887 437.268 436.825C433.348 440.727 429.316 444.515 425.176 448.182C423.835 449.378 421.165 451.873 419.638 452.759C416.09 456.163 408.682 461.558 404.617 464.486C375.187 485.54 341.609 500.084 306.12 507.149C298.811 508.624 291.439 509.762 284.026 510.559C281.637 510.833 272.578 511.446 270.949 512L240.612 512C238.933 511.386 230.259 510.84 227.635 510.516C220.459 509.625 213.315 508.492 206.215 507.117C171.838 500.307 139.227 486.506 110.404 466.57C104.961 462.82 96.0707 456.358 91.3291 451.834C90.3383 451.273 88.2628 449.269 87.3241 448.437C83.0244 444.648 78.8553 440.714 74.8243 436.641C41.9082 403.809 18.5927 362.604 7.39863 317.48C5.13474 308.221 2.96942 297.204 1.84822 287.68C1.43728 284.223 1.10363 280.757 0.847526 277.285C0.669797 275.037 0.589694 271.773 0 269.679L0 242.392C0.529283 240.838 1.05798 231.642 1.26235 229.493C1.80794 224.15 2.53004 218.826 3.42746 213.531C8.26732 184.695 18.0042 156.899 32.2167 131.347C65.975 70.9505 122.672 26.7273 189.47 8.69008C200.51 5.75845 211.724 3.5286 223.045 2.0139C226.362 1.59783 229.688 1.26248 233.021 1.00813C235.375 0.825195 239.751 0.692013 241.877 0Z"/><path fill="#E8EBEB" d="M161.96 203.745C161.656 191.998 161.975 180.165 161.864 168.411C161.823 164.095 161.873 159.779 161.814 155.459C161.759 151.45 161.604 147.275 161.913 143.289C163.065 128.445 168.918 113.904 179.231 103.052C197.682 83.7341 225.568 78.0555 251.304 77.5123C278.903 76.9297 309.808 81.0202 330.705 100.894C343.199 112.775 349.998 130.075 350.242 147.165C350.306 151.657 350.141 156.235 350.126 160.752L350.115 188.423C350.116 193.157 349.948 199.231 350.197 203.862C354.793 209.082 358.14 213.755 358.512 220.971C358.808 226.713 358.887 232.843 358.708 238.56C358.294 251.709 361.488 266.511 349.999 276.074C347.379 278.254 343.801 280.522 340.566 281.406C332.623 303.536 322.95 324.789 307.239 342.689L307.228 362.94C307.228 368.79 306.852 377.052 308.254 382.492C309.647 387.882 312.44 392.808 316.349 396.772C321.928 402.403 332.606 406.847 340.016 410.533L377.896 429.462L395.587 438.313C403.112 442.081 413.744 446.879 419.638 452.759C416.09 456.163 408.682 461.558 404.617 464.486C375.187 485.54 341.609 500.084 306.12 507.149C298.811 508.624 291.439 509.762 284.026 510.559C281.637 510.833 272.578 511.446 270.949 512L240.612 512C238.933 511.386 230.259 510.84 227.635 510.516C220.459 509.625 213.315 508.492 206.215 507.117C171.838 500.307 139.227 486.506 110.404 466.57C104.961 462.82 96.0707 456.358 91.3291 451.834C96.419 446.85 104.463 442.679 110.696 439.28L125.837 431.019L164.279 410.011C171.353 406.19 181.865 401.279 187.36 395.785C192.684 390.462 195.983 382.382 195.972 374.853C195.956 364.28 196.201 353.298 196 342.702C193.646 339.166 191.094 335.889 188.771 332.333C181.938 321.976 176.205 310.932 171.667 299.383C170.106 295.343 168.72 291.238 167.513 287.079C166.841 284.783 166.125 281.982 165.385 279.76C164.828 278.091 161.525 275.61 160.065 274.082C158.489 272.405 157.151 270.518 156.091 268.475C152.108 260.75 153.47 248.653 153.279 240.009C153.12 232.781 153.102 224.882 153.937 217.715C154.721 212.475 158.461 207.532 161.96 203.745Z"/></svg>